REM DIRINDEX 1\2,1\3
REM DIRNAME cjc132,folder01,folder02
TITLE ""
FILE "27.mp3" MP3
  TRACK 01 AUDIO
    TITLE "0:"
    INDEX 01 00:00:00
  TRACK 02 AUDIO
    TITLE "3:cjc132_0463"
    INDEX 01 00:00:13
  TRACK 03 AUDIO
    TITLE "0:"
    INDEX 01 00:01:30
  TRACK 04 AUDIO
    TITLE "2:cjc132_0464"
    INDEX 01 00:02:04
  TRACK 05 AUDIO
    TITLE "0:"
    INDEX 01 00:03:70
  TRACK 06 AUDIO
    TITLE "2:cjc132_0465"
    INDEX 01 00:04:42
  TRACK 07 AUDIO
    TITLE "0:"
    INDEX 01 00:06:12
  TRACK 08 AUDIO
    TITLE "2:cjc132_0466"
    INDEX 01 00:06:63
  TRACK 09 AUDIO
    TITLE "0:"
    INDEX 01 00:08:42
  TRACK 10 AUDIO
    TITLE "2:cjc132_0467"
    INDEX 01 00:09:18
  TRACK 11 AUDIO
    TITLE "0:"
    INDEX 01 00:10:72
  TRACK 12 AUDIO
    TITLE "2:cjc132_0468"
    INDEX 01 00:11:44
  TRACK 13 AUDIO
    TITLE "0:"
    INDEX 01 00:13:14
  TRACK 14 AUDIO
    TITLE "2:cjc132_0469"
    INDEX 01 00:14:25
  TRACK 15 AUDIO
    TITLE "0:"
    INDEX 01 00:15:66
  TRACK 16 AUDIO
    TITLE "2:cjc132_0470"
    INDEX 01 00:17:51
  TRACK 17 AUDIO
    TITLE "0:"
    INDEX 01 00:19:50
  TRACK 18 AUDIO
    TITLE "2:cjc132_0471"
    INDEX 01 00:21:72
  TRACK 19 AUDIO
    TITLE "0:"
    INDEX 01 00:23:73
  TRACK 20 AUDIO
    TITLE "2:cjc132_0472"
    INDEX 01 00:26:22
  TRACK 21 AUDIO
    TITLE "0:"
    INDEX 01 00:27:63
  TRACK 22 AUDIO
    TITLE "2:cjc132_0473"
    INDEX 01 00:29:52
  TRACK 23 AUDIO
    TITLE "0:"
    INDEX 01 00:31:10
  TRACK 24 AUDIO
    TITLE "2:cjc132_0474"
    INDEX 01 00:32:64
  TRACK 25 AUDIO
    TITLE "0:"
    INDEX 01 00:34:42
  TRACK 26 AUDIO
    TITLE "2:cjc132_0475"
    INDEX 01 00:36:38
  TRACK 27 AUDIO
    TITLE "0:"
    INDEX 01 00:38:20
  TRACK 28 AUDIO
    TITLE "2:cjc132_0476"
    INDEX 01 00:40:24
  TRACK 29 AUDIO
    TITLE "0:"
    INDEX 01 00:42:04
  TRACK 30 AUDIO
    TITLE "2:cjc132_0477"
    INDEX 01 00:44:05
  TRACK 31 AUDIO
    TITLE "0:"
    INDEX 01 00:45:61
  TRACK 32 AUDIO
    TITLE "2:cjc132_0478"
    INDEX 01 00:47:68
  TRACK 33 AUDIO
    TITLE "0:"
    INDEX 01 00:49:74
  TRACK 34 AUDIO
    TITLE "2:cjc132_0479"
    INDEX 01 00:52:28
  TRACK 35 AUDIO
    TITLE "0:"
    INDEX 01 00:53:57
  TRACK 36 AUDIO
    TITLE "2:cjc132_0480"
    INDEX 01 00:55:28
  TRACK 37 AUDIO
    TITLE "0:"
    INDEX 01 00:57:09
  TRACK 38 AUDIO
    TITLE "2:cjc132_0481"
    INDEX 01 00:59:10
  TRACK 39 AUDIO
    TITLE "0:"
    INDEX 01 01:00:64
  TRACK 40 AUDIO
    TITLE "2:cjc132_0482"
    INDEX 01 01:02:61
  TRACK 41 AUDIO
    TITLE "0:"
    INDEX 01 01:04:43
  TRACK 42 AUDIO
    TITLE "2:cjc132_0483"
    INDEX 01 01:06:38
  TRACK 43 AUDIO
    TITLE "0:"
    INDEX 01 01:08:15
  TRACK 44 AUDIO
    TITLE "2:cjc132_0484"
    INDEX 01 01:10:12
  TRACK 45 AUDIO
    TITLE "0:"
    INDEX 01 01:11:52
  TRACK 46 AUDIO
    TITLE "2:cjc132_0485"
    INDEX 01 01:13:40
  TRACK 47 AUDIO
    TITLE "0:"
    INDEX 01 01:15:29
  TRACK 48 AUDIO
    TITLE "2:cjc132_0486"
    INDEX 01 01:17:39
  TRACK 49 AUDIO
    TITLE "0:"
    INDEX 01 01:19:34
  TRACK 50 AUDIO
    TITLE "2:cjc132_0487"
    INDEX 01 01:21:43
  TRACK 51 AUDIO
    TITLE "0:"
    INDEX 01 01:23:22
  TRACK 52 AUDIO
    TITLE "2:cjc132_0488"
    INDEX 01 01:25:21
  TRACK 53 AUDIO
    TITLE "0:"
    INDEX 01 01:26:64
  TRACK 54 AUDIO
    TITLE "2:cjc132_0489"
    INDEX 01 01:28:51
  TRACK 55 AUDIO
    TITLE "0:"
    INDEX 01 01:30:34
  TRACK 56 AUDIO
    TITLE "2:cjc132_0490"
    INDEX 01 01:32:39
  TRACK 57 AUDIO
    TITLE "0:"
    INDEX 01 01:34:10
  TRACK 58 AUDIO
    TITLE "2:cjc132_0491"
    INDEX 01 01:36:00
  TRACK 59 AUDIO
    TITLE "0:"
    INDEX 01 01:37:54
  TRACK 60 AUDIO
    TITLE "2:cjc132_0492"
    INDEX 01 01:39:55
  TRACK 61 AUDIO
    TITLE "0:"
    INDEX 01 01:41:30
